<svg width="375" height="266" viewBox="0 0 375 266" fill="none" xmlns="http://www.w3.org/2000/svg">
<g filter="url(#filter0_d_284:6191)">
<mask id="mask0_284:6191" style="mask-type:alpha" maskUnits="userSpaceOnUse" x="16" y="24" width="343" height="216">
<rect x="16" y="24" width="343" height="216" rx="8" fill="#222222"/>
</mask>
<g mask="url(#mask0_284:6191)">
<g filter="url(#filter1_d_284:6191)">
<rect x="16" y="24" width="344" height="216" rx="8" fill="#222222"/>
</g>
<path d="M227.5 161.5C207.204 158.502 183.838 160.679 165.418 163.642C144.515 167.005 122.696 164.38 104.493 153.567C80.4884 139.309 51.2911 136.779 25.1923 146.697L16.5 150L8 247H296L294.425 235.028C293.81 230.357 292.712 225.786 290.764 221.496C283.629 205.785 262.541 166.677 227.5 161.5Z" fill="url(#paint0_linear_284:6191)" fill-opacity="0.05"/>
<circle cx="326.5" cy="53.5" r="120.5" fill="url(#paint1_linear_284:6191)" fill-opacity="0.05"/>
</g>
<path d="M308.818 207.876V206.221C308.818 205.587 308.433 205.173 307.775 205.173C307.446 205.173 307.089 205.283 306.842 205.642C306.65 205.338 306.375 205.173 305.964 205.173C305.689 205.173 305.415 205.256 305.195 205.559V205.228H304.619V207.876H305.195V206.414C305.195 205.945 305.442 205.725 305.827 205.725C306.211 205.725 306.403 205.973 306.403 206.414V207.876H306.979V206.414C306.979 205.945 307.253 205.725 307.61 205.725C307.994 205.725 308.186 205.973 308.186 206.414V207.876H308.818ZM317.352 205.228H316.419V204.428H315.842V205.228H315.321V205.752H315.842V206.966C315.842 207.572 316.089 207.931 316.748 207.931C316.995 207.931 317.269 207.848 317.461 207.738L317.297 207.241C317.132 207.352 316.94 207.379 316.803 207.379C316.528 207.379 316.419 207.214 316.419 206.938V205.752H317.352V205.228ZM322.236 205.173C321.907 205.173 321.687 205.338 321.55 205.559V205.228H320.974V207.876H321.55V206.386C321.55 205.945 321.742 205.697 322.099 205.697C322.209 205.697 322.346 205.725 322.456 205.752L322.62 205.201C322.51 205.173 322.346 205.173 322.236 205.173ZM314.854 205.449C314.58 205.256 314.196 205.173 313.784 205.173C313.126 205.173 312.687 205.504 312.687 206.028C312.687 206.469 313.016 206.717 313.592 206.8L313.867 206.828C314.168 206.883 314.333 206.966 314.333 207.103C314.333 207.297 314.114 207.434 313.729 207.434C313.345 207.434 313.043 207.297 312.851 207.159L312.577 207.6C312.879 207.821 313.29 207.931 313.702 207.931C314.47 207.931 314.909 207.572 314.909 207.076C314.909 206.607 314.553 206.359 314.004 206.276L313.729 206.249C313.482 206.221 313.29 206.166 313.29 206C313.29 205.807 313.482 205.697 313.784 205.697C314.114 205.697 314.443 205.835 314.608 205.918L314.854 205.449ZM330.166 205.173C329.837 205.173 329.618 205.338 329.48 205.559V205.228H328.904V207.876H329.48V206.386C329.48 205.945 329.672 205.697 330.029 205.697C330.139 205.697 330.276 205.725 330.386 205.752L330.551 205.201C330.441 205.173 330.276 205.173 330.166 205.173ZM322.812 206.552C322.812 207.352 323.361 207.931 324.212 207.931C324.596 207.931 324.87 207.848 325.145 207.627L324.87 207.159C324.651 207.324 324.431 207.407 324.184 207.407C323.718 207.407 323.389 207.076 323.389 206.552C323.389 206.056 323.718 205.725 324.184 205.697C324.431 205.697 324.651 205.78 324.87 205.945L325.145 205.476C324.87 205.256 324.596 205.173 324.212 205.173C323.361 205.173 322.812 205.752 322.812 206.552ZM328.136 206.552V205.228H327.559V205.559C327.367 205.311 327.093 205.173 326.736 205.173C325.995 205.173 325.419 205.752 325.419 206.552C325.419 207.352 325.995 207.931 326.736 207.931C327.12 207.931 327.395 207.793 327.559 207.545V207.876H328.136V206.552ZM326.023 206.552C326.023 206.083 326.325 205.697 326.819 205.697C327.285 205.697 327.614 206.056 327.614 206.552C327.614 207.021 327.285 207.407 326.819 207.407C326.325 207.379 326.023 207.021 326.023 206.552ZM319.135 205.173C318.367 205.173 317.818 205.725 317.818 206.552C317.818 207.379 318.367 207.931 319.163 207.931C319.547 207.931 319.931 207.821 320.233 207.572L319.958 207.159C319.739 207.324 319.465 207.434 319.19 207.434C318.833 207.434 318.477 207.269 318.394 206.8H320.343V206.58C320.37 205.725 319.876 205.173 319.135 205.173ZM319.135 205.669C319.492 205.669 319.739 205.89 319.794 206.304H318.422C318.477 205.945 318.724 205.669 319.135 205.669ZM333.432 206.552V204.18H332.856V205.559C332.663 205.311 332.389 205.173 332.032 205.173C331.291 205.173 330.715 205.752 330.715 206.552C330.715 207.352 331.291 207.931 332.032 207.931C332.416 207.931 332.691 207.793 332.856 207.545V207.876H333.432V206.552ZM331.319 206.552C331.319 206.083 331.621 205.697 332.115 205.697C332.581 205.697 332.91 206.056 332.91 206.552C332.91 207.021 332.581 207.407 332.115 207.407C331.621 207.379 331.319 207.021 331.319 206.552ZM312.056 206.552V205.228H311.479V205.559C311.287 205.311 311.013 205.173 310.656 205.173C309.915 205.173 309.339 205.752 309.339 206.552C309.339 207.352 309.915 207.931 310.656 207.931C311.04 207.931 311.315 207.793 311.479 207.545V207.876H312.056V206.552ZM309.915 206.552C309.915 206.083 310.217 205.697 310.711 205.697C311.177 205.697 311.507 206.056 311.507 206.552C311.507 207.021 311.177 207.407 310.711 207.407C310.217 207.379 309.915 207.021 309.915 206.552Z" fill="white"/>
<path d="M323.306 185.124H314.662V200.733H323.306V185.124Z" fill="#FF5F00"/>
<path d="M315.211 192.928C315.211 189.757 316.693 186.944 318.97 185.124C317.297 183.8 315.184 183 312.879 183C307.418 183 303 187.44 303 192.928C303 198.416 307.418 202.857 312.879 202.857C315.184 202.857 317.297 202.057 318.97 200.733C316.693 198.94 315.211 196.1 315.211 192.928Z" fill="#EB001B"/>
<path d="M334.968 192.928C334.968 198.416 330.551 202.857 325.09 202.857C322.785 202.857 320.672 202.057 318.998 200.733C321.303 198.913 322.757 196.1 322.757 192.928C322.757 189.757 321.276 186.944 318.998 185.124C320.672 183.8 322.785 183 325.09 183C330.551 183 334.968 187.468 334.968 192.928Z" fill="#F79E1B"/>
<mask id="mask1_284:6191" style="mask-type:alpha" maskUnits="userSpaceOnUse" x="40" y="58" width="32" height="24">
<rect x="40" y="58" width="32" height="24" rx="8" fill="#FFBA49"/>
</mask>
<g mask="url(#mask1_284:6191)">
<rect x="40" y="58" width="32" height="24" rx="8" fill="#FFBA49"/>
<rect x="34" y="60" width="20" height="7" rx="2.5" stroke="#D29634" stroke-width="0.3"/>
<rect x="34" y="67" width="20" height="7" rx="2.5" stroke="#D29634" stroke-width="0.3"/>
<rect x="34" y="74" width="20" height="7" rx="2.5" stroke="#D29634" stroke-width="0.3"/>
<rect x="59" y="60" width="20" height="7" rx="2.5" stroke="#D29634" stroke-width="0.3"/>
<rect x="59" y="67" width="20" height="7" rx="2.5" stroke="#D29634" stroke-width="0.3"/>
<rect x="59" y="74" width="20" height="7" rx="2.5" stroke="#D29634" stroke-width="0.3"/>
</g>
<path d="M43.5536 118.797L39.7333 117.742L40.495 115.527L44.2333 117.062L43.9403 112.938H46.4481L46.1434 117.145L49.7762 115.645L50.538 117.883L46.6708 118.938L49.2372 122.043L47.2098 123.426L45.0653 119.98L42.9091 123.309L40.8817 121.984L43.5536 118.797ZM59.8704 118.797L56.0501 117.742L56.8118 115.527L60.5501 117.062L60.2571 112.938H62.7649L62.4602 117.145L66.0931 115.645L66.8548 117.883L62.9876 118.938L65.554 122.043L63.5267 123.426L61.3821 119.98L59.2259 123.309L57.1985 121.984L59.8704 118.797ZM76.1872 118.797L72.3669 117.742L73.1286 115.527L76.8669 117.062L76.5739 112.938H79.0817L78.7771 117.145L82.4099 115.645L83.1716 117.883L79.3044 118.938L81.8708 122.043L79.8435 123.426L77.6989 119.98L75.5427 123.309L73.5153 121.984L76.1872 118.797ZM92.504 118.797L88.6837 117.742L89.4454 115.527L93.1837 117.062L92.8907 112.938H95.3986L95.0939 117.145L98.7267 115.645L99.4884 117.883L95.6212 118.938L98.1876 122.043L96.1603 123.426L94.0157 119.98L91.8595 123.309L89.8322 121.984L92.504 118.797ZM114.389 118.797L110.569 117.742L111.331 115.527L115.069 117.062L114.776 112.938H117.284L116.979 117.145L120.612 115.645L121.374 117.883L117.507 118.938L120.073 122.043L118.046 123.426L115.901 119.98L113.745 123.309L111.718 121.984L114.389 118.797ZM130.706 118.797L126.886 117.742L127.648 115.527L131.386 117.062L131.093 112.938H133.601L133.296 117.145L136.929 115.645L137.691 117.883L133.823 118.938L136.39 122.043L134.362 123.426L132.218 119.98L130.062 123.309L128.034 121.984L130.706 118.797ZM147.023 118.797L143.203 117.742L143.964 115.527L147.703 117.062L147.41 112.938H149.918L149.613 117.145L153.246 115.645L154.007 117.883L150.14 118.938L152.707 122.043L150.679 123.426L148.535 119.98L146.378 123.309L144.351 121.984L147.023 118.797ZM163.34 118.797L159.52 117.742L160.281 115.527L164.02 117.062L163.727 112.938H166.234L165.93 117.145L169.562 115.645L170.324 117.883L166.457 118.938L169.023 122.043L166.996 123.426L164.852 119.98L162.695 123.309L160.668 121.984L163.34 118.797ZM185.225 118.797L181.405 117.742L182.167 115.527L185.905 117.062L185.612 112.938H188.12L187.815 117.145L191.448 115.645L192.21 117.883L188.342 118.938L190.909 122.043L188.881 123.426L186.737 119.98L184.581 123.309L182.553 121.984L185.225 118.797ZM201.542 118.797L197.722 117.742L198.483 115.527L202.222 117.062L201.929 112.938H204.437L204.132 117.145L207.765 115.645L208.526 117.883L204.659 118.938L207.226 122.043L205.198 123.426L203.054 119.98L200.897 123.309L198.87 121.984L201.542 118.797ZM217.859 118.797L214.039 117.742L214.8 115.527L218.539 117.062L218.246 112.938H220.753L220.449 117.145L224.081 115.645L224.843 117.883L220.976 118.938L223.542 122.043L221.515 123.426L219.371 119.98L217.214 123.309L215.187 121.984L217.859 118.797ZM234.176 118.797L230.355 117.742L231.117 115.527L234.855 117.062L234.562 112.938H237.07L236.766 117.145L240.398 115.645L241.16 117.883L237.293 118.938L239.859 122.043L237.832 123.426L235.687 119.98L233.531 123.309L231.504 121.984L234.176 118.797ZM256.459 120.414H258.088C259.112 120.398 259.916 120.129 260.502 119.605C261.088 119.082 261.381 118.375 261.381 117.484C261.381 115.484 260.385 114.484 258.393 114.484C257.456 114.484 256.706 114.754 256.143 115.293C255.588 115.824 255.311 116.531 255.311 117.414H253.143C253.143 116.062 253.635 114.941 254.62 114.051C255.612 113.152 256.87 112.703 258.393 112.703C260.002 112.703 261.264 113.129 262.178 113.98C263.092 114.832 263.549 116.016 263.549 117.531C263.549 118.273 263.307 118.992 262.823 119.688C262.346 120.383 261.694 120.902 260.866 121.246C261.803 121.543 262.526 122.035 263.034 122.723C263.549 123.41 263.807 124.25 263.807 125.242C263.807 126.773 263.307 127.988 262.307 128.887C261.307 129.785 260.006 130.234 258.405 130.234C256.803 130.234 255.499 129.801 254.491 128.934C253.491 128.066 252.991 126.922 252.991 125.5H255.17C255.17 126.398 255.463 127.117 256.049 127.656C256.635 128.195 257.42 128.465 258.405 128.465C259.452 128.465 260.252 128.191 260.807 127.645C261.362 127.098 261.639 126.312 261.639 125.289C261.639 124.297 261.334 123.535 260.725 123.004C260.116 122.473 259.237 122.199 258.088 122.184H256.459V120.414ZM274.684 122.5C274.231 123.039 273.688 123.473 273.055 123.801C272.43 124.129 271.743 124.293 270.993 124.293C270.008 124.293 269.149 124.051 268.415 123.566C267.688 123.082 267.126 122.402 266.727 121.527C266.329 120.645 266.13 119.672 266.13 118.609C266.13 117.469 266.344 116.441 266.774 115.527C267.212 114.613 267.829 113.914 268.626 113.43C269.423 112.945 270.352 112.703 271.415 112.703C273.102 112.703 274.43 113.336 275.399 114.602C276.376 115.859 276.864 117.578 276.864 119.758V120.391C276.864 123.711 276.208 126.137 274.895 127.668C273.583 129.191 271.602 129.973 268.954 130.012H268.532V128.184H268.989C270.778 128.152 272.153 127.688 273.114 126.789C274.075 125.883 274.598 124.453 274.684 122.5ZM271.344 122.5C272.071 122.5 272.739 122.277 273.348 121.832C273.966 121.387 274.415 120.836 274.696 120.18V119.312C274.696 117.891 274.387 116.734 273.77 115.844C273.153 114.953 272.372 114.508 271.426 114.508C270.473 114.508 269.708 114.875 269.13 115.609C268.551 116.336 268.262 117.297 268.262 118.492C268.262 119.656 268.54 120.617 269.094 121.375C269.657 122.125 270.407 122.5 271.344 122.5ZM288.597 124.27H290.964V126.039H288.597V130H286.417V126.039H278.647V124.762L286.288 112.938H288.597V124.27ZM281.108 124.27H286.417V115.902L286.159 116.371L281.108 124.27ZM303.528 114.156L296.462 130H294.189L301.232 114.719H291.997V112.938H303.528V114.156Z" fill="white"/>
<path opacity="0.8" d="M50.433 187.593C50.4103 188.088 50.2768 188.525 50.0327 188.906C49.7885 189.284 49.4451 189.577 49.0024 189.785C48.5629 189.993 48.06 190.098 47.4936 190.098C46.5594 190.098 45.8237 189.793 45.2866 189.185C44.7495 188.576 44.4809 187.716 44.4809 186.606V186.255C44.4809 185.558 44.6013 184.95 44.8422 184.429C45.0864 183.905 45.4363 183.501 45.892 183.218C46.3478 182.931 46.8751 182.788 47.4741 182.788C48.3367 182.788 49.0301 183.016 49.5541 183.472C50.0782 183.924 50.3761 184.549 50.4477 185.347H48.7387C48.7257 184.914 48.6166 184.603 48.4116 184.414C48.2065 184.225 47.894 184.131 47.4741 184.131C47.0476 184.131 46.7351 184.29 46.5366 184.609C46.338 184.928 46.2338 185.438 46.2241 186.138V186.641C46.2241 187.399 46.3185 187.941 46.5073 188.267C46.6993 188.592 47.0281 188.755 47.4936 188.755C47.8875 188.755 48.1886 188.662 48.3969 188.477C48.6052 188.291 48.7159 187.996 48.7289 187.593H50.433ZM53.736 190C53.6774 189.893 53.6253 189.735 53.5797 189.526C53.277 189.907 52.8538 190.098 52.3102 190.098C51.8122 190.098 51.389 189.948 51.0407 189.648C50.6924 189.346 50.5182 188.966 50.5182 188.511C50.5182 187.938 50.7298 187.505 51.153 187.212C51.5762 186.919 52.1914 186.772 52.9987 186.772H53.5065V186.494C53.5065 186.009 53.2965 185.767 52.8766 185.767C52.486 185.767 52.2907 185.959 52.2907 186.343H50.6452C50.6452 185.832 50.8616 185.417 51.2946 185.098C51.7308 184.779 52.2858 184.619 52.9596 184.619C53.6334 184.619 54.1657 184.784 54.5563 185.112C54.9469 185.441 55.1471 185.892 55.1569 186.465V188.804C55.1634 189.289 55.2383 189.66 55.3815 189.917V190H53.736ZM52.7057 188.926C52.9108 188.926 53.0801 188.882 53.2135 188.794C53.3502 188.706 53.4479 188.607 53.5065 188.496V187.651H53.028C52.4551 187.651 52.1686 187.909 52.1686 188.423C52.1686 188.573 52.2191 188.695 52.32 188.789C52.4209 188.88 52.5495 188.926 52.7057 188.926ZM58.8602 186.206L58.3182 186.167C57.8006 186.167 57.4686 186.33 57.3221 186.655V190H55.6766V184.717H57.2196L57.2733 185.396C57.55 184.878 57.9357 184.619 58.4305 184.619C58.6063 184.619 58.7593 184.639 58.8895 184.678L58.8602 186.206ZM58.7403 187.319C58.7403 186.483 58.921 185.824 59.2823 185.342C59.6436 184.86 60.1482 184.619 60.796 184.619C61.268 184.619 61.6651 184.805 61.9874 185.176V182.5H63.6378V190H62.1583L62.0753 189.434C61.7367 189.876 61.307 190.098 60.7862 190.098C60.1579 190.098 59.6599 189.857 59.2921 189.375C58.9242 188.893 58.7403 188.208 58.7403 187.319ZM60.3858 187.422C60.3858 188.359 60.6592 188.828 61.2061 188.828C61.5707 188.828 61.8311 188.675 61.9874 188.369V186.357C61.8376 186.045 61.5805 185.889 61.2159 185.889C60.7081 185.889 60.433 186.299 60.3907 187.119L60.3858 187.422ZM72.2651 190H70.561V187.031H68.0366V190H66.3227V182.891H68.0366V185.713H70.561V182.891H72.2651V190ZM72.6628 187.31C72.6628 186.782 72.7653 186.313 72.9704 185.903C73.1755 185.49 73.4701 185.173 73.8542 184.951C74.2383 184.73 74.6891 184.619 75.2067 184.619C75.9977 184.619 76.6211 184.865 77.0768 185.356C77.5326 185.845 77.7604 186.51 77.7604 187.354V187.412C77.7604 188.236 77.5309 188.89 77.072 189.375C76.6162 189.857 75.9977 190.098 75.2165 190.098C74.4645 190.098 73.8607 189.873 73.405 189.424C72.9492 188.971 72.7035 188.359 72.6677 187.588L72.6628 187.31ZM74.3083 187.412C74.3083 187.9 74.3848 188.258 74.5378 188.486C74.6908 188.714 74.917 188.828 75.2165 188.828C75.8024 188.828 76.1019 188.377 76.1149 187.476V187.31C76.1149 186.362 75.8122 185.889 75.2067 185.889C74.6566 185.889 74.3587 186.297 74.3132 187.114L74.3083 187.412ZM79.8134 190H78.163V182.5H79.8134V190ZM80.2159 187.319C80.2159 186.483 80.3966 185.824 80.7579 185.342C81.1192 184.86 81.6238 184.619 82.2716 184.619C82.7436 184.619 83.1407 184.805 83.463 185.176V182.5H85.1134V190H83.6339L83.5509 189.434C83.2123 189.876 82.7827 190.098 82.2618 190.098C81.6336 190.098 81.1355 189.857 80.7677 189.375C80.3998 188.893 80.2159 188.208 80.2159 187.319ZM81.8614 187.422C81.8614 188.359 82.1349 188.828 82.6817 188.828C83.0463 188.828 83.3067 188.675 83.463 188.369V186.357C83.3133 186.045 83.0561 185.889 82.6915 185.889C82.1837 185.889 81.9086 186.299 81.8663 187.119L81.8614 187.422ZM88.1966 190.098C87.386 190.098 86.7301 189.857 86.2288 189.375C85.7275 188.89 85.4769 188.26 85.4769 187.485V187.349C85.4769 186.808 85.5762 186.331 85.7747 185.918C85.9765 185.505 86.2695 185.186 86.6536 184.961C87.0377 184.733 87.4935 184.619 88.0208 184.619C88.763 184.619 89.3489 184.85 89.7786 185.312C90.2083 185.771 90.4232 186.413 90.4232 187.236V187.876H87.1517C87.2103 188.172 87.3388 188.405 87.5374 188.574C87.736 188.743 87.9931 188.828 88.3089 188.828C88.8297 188.828 89.2366 188.646 89.5296 188.281L90.2816 189.17C90.0765 189.453 89.7851 189.679 89.4075 189.849C89.0332 190.015 88.6295 190.098 88.1966 190.098ZM88.011 185.889C87.5293 185.889 87.2428 186.208 87.1517 186.846H88.8118V186.719C88.8183 186.455 88.7516 186.252 88.6116 186.108C88.4717 185.962 88.2715 185.889 88.011 185.889ZM93.8775 186.206L93.3355 186.167C92.8179 186.167 92.4859 186.33 92.3394 186.655V190H90.6939V184.717H92.2368L92.2905 185.396C92.5672 184.878 92.953 184.619 93.4478 184.619C93.6236 184.619 93.7765 184.639 93.9068 184.678L93.8775 186.206ZM102.158 190H100.454L97.9345 185.576V190H96.2206V182.891H97.9345L100.449 187.314V182.891H102.158V190ZM105.735 190C105.676 189.893 105.624 189.735 105.578 189.526C105.276 189.907 104.852 190.098 104.309 190.098C103.811 190.098 103.388 189.948 103.039 189.648C102.691 189.346 102.517 188.966 102.517 188.511C102.517 187.938 102.728 187.505 103.152 187.212C103.575 186.919 104.19 186.772 104.997 186.772H105.505V186.494C105.505 186.009 105.295 185.767 104.875 185.767C104.485 185.767 104.289 185.959 104.289 186.343H102.644C102.644 185.832 102.86 185.417 103.293 185.098C103.729 184.779 104.284 184.619 104.958 184.619C105.632 184.619 106.164 184.784 106.555 185.112C106.945 185.441 107.146 185.892 107.155 186.465V188.804C107.162 189.289 107.237 189.66 107.38 189.917V190H105.735ZM104.704 188.926C104.909 188.926 105.079 188.882 105.212 188.794C105.349 188.706 105.446 188.607 105.505 188.496V187.651H105.027C104.454 187.651 104.167 187.909 104.167 188.423C104.167 188.573 104.218 188.695 104.319 188.789C104.419 188.88 104.548 188.926 104.704 188.926ZM109.218 184.717L109.272 185.337C109.646 184.858 110.149 184.619 110.781 184.619C111.448 184.619 111.899 184.884 112.133 185.415C112.491 184.884 113.009 184.619 113.686 184.619C114.757 184.619 115.307 185.267 115.336 186.562V190H113.686V186.665C113.686 186.395 113.64 186.198 113.549 186.074C113.458 185.951 113.292 185.889 113.051 185.889C112.726 185.889 112.483 186.034 112.324 186.323L112.328 186.392V190H110.678V186.675C110.678 186.398 110.634 186.198 110.546 186.074C110.458 185.951 110.291 185.889 110.043 185.889C109.728 185.889 109.487 186.034 109.321 186.323V190H107.675V184.717H109.218ZM118.424 190.098C117.614 190.098 116.958 189.857 116.457 189.375C115.955 188.89 115.705 188.26 115.705 187.485V187.349C115.705 186.808 115.804 186.331 116.003 185.918C116.204 185.505 116.497 185.186 116.881 184.961C117.266 184.733 117.721 184.619 118.249 184.619C118.991 184.619 119.577 184.85 120.006 185.312C120.436 185.771 120.651 186.413 120.651 187.236V187.876H117.379C117.438 188.172 117.567 188.405 117.765 188.574C117.964 188.743 118.221 188.828 118.537 188.828C119.058 188.828 119.464 188.646 119.757 188.281L120.509 189.17C120.304 189.453 120.013 189.679 119.635 189.849C119.261 190.015 118.857 190.098 118.424 190.098ZM118.239 185.889C117.757 185.889 117.471 186.208 117.379 186.846H119.04V186.719C119.046 186.455 118.979 186.252 118.839 186.108C118.699 185.962 118.499 185.889 118.239 185.889Z" fill="white"/>
<path opacity="0.8" d="M199.946 186.987H197.251V188.682H200.435V190H195.537V182.891H200.444V184.214H197.251V185.713H199.946V186.987ZM202.79 186.172L203.557 184.717H205.266L203.874 187.29L205.334 190H203.615L202.785 188.438L201.97 190H200.241L201.706 187.29L200.32 184.717H202.048L202.79 186.172ZM210.292 187.397C210.292 188.218 210.107 188.874 209.736 189.365C209.368 189.854 208.87 190.098 208.242 190.098C207.757 190.098 207.358 189.92 207.045 189.565V192.031H205.4V184.717H206.938L206.987 185.205C207.302 184.814 207.718 184.619 208.232 184.619C208.883 184.619 209.389 184.86 209.75 185.342C210.112 185.82 210.292 186.479 210.292 187.319V187.397ZM208.647 187.295C208.647 186.357 208.373 185.889 207.827 185.889C207.436 185.889 207.176 186.029 207.045 186.309V188.389C207.189 188.682 207.452 188.828 207.836 188.828C208.36 188.828 208.631 188.376 208.647 187.471V187.295ZM212.35 190H210.7V184.717H212.35V190ZM210.602 183.354C210.602 183.12 210.687 182.928 210.856 182.778C211.025 182.629 211.245 182.554 211.515 182.554C211.785 182.554 212.005 182.629 212.174 182.778C212.344 182.928 212.428 183.12 212.428 183.354C212.428 183.589 212.344 183.781 212.174 183.931C212.005 184.08 211.785 184.155 211.515 184.155C211.245 184.155 211.025 184.08 210.856 183.931C210.687 183.781 210.602 183.589 210.602 183.354ZM216.156 186.206L215.614 186.167C215.097 186.167 214.764 186.33 214.618 186.655V190H212.972V184.717H214.515L214.569 185.396C214.846 184.878 215.232 184.619 215.726 184.619C215.902 184.619 216.055 184.639 216.185 184.678L216.156 186.206ZM218.541 187.695L219.42 184.717H221.183L219.029 190.884L218.937 191.108C218.631 191.792 218.09 192.134 217.315 192.134C217.101 192.134 216.874 192.101 216.637 192.036V190.859H216.852C217.083 190.859 217.259 190.825 217.379 190.757C217.503 190.692 217.594 190.573 217.652 190.4L217.784 190.049L215.948 184.717H217.706L218.541 187.695ZM223.365 190V182.891H225.655C226.283 182.891 226.848 183.034 227.349 183.32C227.85 183.604 228.241 184.006 228.521 184.526C228.804 185.044 228.947 185.625 228.951 186.27V186.597C228.951 187.248 228.812 187.832 228.536 188.35C228.262 188.864 227.875 189.268 227.373 189.561C226.875 189.85 226.319 189.997 225.704 190H223.365ZM225.079 184.214V188.682H225.674C226.166 188.682 226.543 188.507 226.807 188.159C227.071 187.808 227.203 187.287 227.203 186.597V186.289C227.203 185.602 227.071 185.085 226.807 184.736C226.543 184.388 226.159 184.214 225.655 184.214H225.079ZM232.322 190C232.263 189.893 232.211 189.735 232.166 189.526C231.863 189.907 231.44 190.098 230.896 190.098C230.398 190.098 229.975 189.948 229.627 189.648C229.278 189.346 229.104 188.966 229.104 188.511C229.104 187.938 229.316 187.505 229.739 187.212C230.162 186.919 230.777 186.772 231.585 186.772H232.092V186.494C232.092 186.009 231.882 185.767 231.463 185.767C231.072 185.767 230.877 185.959 230.877 186.343H229.231C229.231 185.832 229.448 185.417 229.881 185.098C230.317 184.779 230.872 184.619 231.546 184.619C232.219 184.619 232.752 184.784 233.142 185.112C233.533 185.441 233.733 185.892 233.743 186.465V188.804C233.749 189.289 233.824 189.66 233.967 189.917V190H232.322ZM231.292 188.926C231.497 188.926 231.666 188.882 231.799 188.794C231.936 188.706 232.034 188.607 232.092 188.496V187.651H231.614C231.041 187.651 230.755 187.909 230.755 188.423C230.755 188.573 230.805 188.695 230.906 188.789C231.007 188.88 231.135 188.926 231.292 188.926ZM236.167 183.403V184.717H237.036V185.859H236.167V188.276C236.167 188.475 236.203 188.613 236.274 188.691C236.346 188.77 236.488 188.809 236.699 188.809C236.862 188.809 236.999 188.799 237.109 188.779V189.956C236.813 190.05 236.504 190.098 236.182 190.098C235.615 190.098 235.197 189.964 234.927 189.697C234.656 189.43 234.521 189.025 234.521 188.481V185.859H233.848V184.717H234.521V183.403H236.167ZM239.836 190.098C239.025 190.098 238.37 189.857 237.868 189.375C237.367 188.89 237.116 188.26 237.116 187.485V187.349C237.116 186.808 237.216 186.331 237.414 185.918C237.616 185.505 237.909 185.186 238.293 184.961C238.677 184.733 239.133 184.619 239.66 184.619C240.402 184.619 240.988 184.85 241.418 185.312C241.848 185.771 242.063 186.413 242.063 187.236V187.876H238.791C238.85 188.172 238.978 188.405 239.177 188.574C239.375 188.743 239.633 188.828 239.948 188.828C240.469 188.828 240.876 188.646 241.169 188.281L241.921 189.17C241.716 189.453 241.425 189.679 241.047 189.849C240.673 190.015 240.269 190.098 239.836 190.098ZM239.65 185.889C239.169 185.889 238.882 186.208 238.791 186.846H240.451V186.719C240.458 186.455 240.391 186.252 240.251 186.108C240.111 185.962 239.911 185.889 239.65 185.889Z" fill="white"/>
<path d="M49.1942 201.047H51.5868V207.876C51.5868 208.509 51.4387 209.075 51.1424 209.571C50.8508 210.068 50.4406 210.453 49.912 210.727C49.3879 211 48.8023 211.137 48.1551 211.137C47.0705 211.137 46.2274 210.863 45.6258 210.316C45.0243 209.77 44.7235 208.995 44.7235 207.992H47.1297C47.1297 208.448 47.2072 208.778 47.3622 208.983C47.5217 209.188 47.786 209.291 48.1551 209.291C48.4878 209.291 48.743 209.168 48.9208 208.922C49.103 208.671 49.1942 208.323 49.1942 207.876V201.047ZM56.169 211.137C55.0342 211.137 54.1159 210.799 53.4141 210.125C52.7123 209.446 52.3614 208.564 52.3614 207.479V207.288C52.3614 206.532 52.5004 205.864 52.7784 205.285C53.0609 204.706 53.4711 204.26 54.0089 203.945C54.5466 203.626 55.1846 203.467 55.9229 203.467C56.962 203.467 57.7823 203.79 58.3839 204.438C58.9854 205.08 59.2862 205.978 59.2862 207.131V208.026H54.7061C54.7881 208.441 54.9682 208.767 55.2462 209.004C55.5242 209.241 55.8842 209.359 56.3262 209.359C57.0554 209.359 57.6251 209.104 58.0352 208.594L59.088 209.838C58.8008 210.234 58.393 210.551 57.8643 210.788C57.3402 211.021 56.7751 211.137 56.169 211.137ZM55.9092 205.244C55.2348 205.244 54.8337 205.691 54.7061 206.584H57.0303V206.406C57.0395 206.037 56.946 205.752 56.7501 205.552C56.5541 205.347 56.2738 205.244 55.9092 205.244ZM61.927 203.604L62.0022 204.472C62.5126 203.802 63.2167 203.467 64.1145 203.467C64.8847 203.467 65.4589 203.697 65.8372 204.157C66.22 204.618 66.4182 205.31 66.4319 206.235V211H64.1214V206.331C64.1214 205.957 64.0462 205.684 63.8958 205.511C63.7454 205.333 63.4719 205.244 63.0755 205.244C62.6243 205.244 62.2893 205.422 62.0706 205.777V211H59.7669V203.604H61.927ZM69.4214 203.604L69.4966 204.472C70.007 203.802 70.7111 203.467 71.6089 203.467C72.379 203.467 72.9533 203.697 73.3315 204.157C73.7143 204.618 73.9126 205.31 73.9263 206.235V211H71.6157V206.331C71.6157 205.957 71.5405 205.684 71.3901 205.511C71.2397 205.333 70.9663 205.244 70.5698 205.244C70.1186 205.244 69.7837 205.422 69.5649 205.777V211H67.2612V203.604H69.4214ZM77.7565 207.773L78.987 203.604H81.4548L78.4401 212.237L78.3102 212.552C77.8819 213.509 77.1253 213.987 76.0407 213.987C75.7399 213.987 75.4232 213.942 75.0905 213.851V212.203H75.3913C75.7149 212.203 75.961 212.155 76.1296 212.06C76.3028 211.968 76.4304 211.802 76.5124 211.561L76.697 211.068L74.1266 203.604H76.5876L77.7565 207.773ZM82.2567 211V205.203H81.1835V203.604H82.2567V203.016C82.2567 202.173 82.5051 201.519 83.0019 201.054C83.4986 200.589 84.1959 200.356 85.0936 200.356C85.4218 200.356 85.7818 200.404 86.1737 200.5L86.1806 202.195C86.0393 202.154 85.8502 202.134 85.6132 202.134C84.9159 202.134 84.5673 202.435 84.5673 203.036V203.604H86.0097V205.203H84.5673V211H82.2567ZM89.8263 211.137C88.6915 211.137 87.7732 210.799 87.0714 210.125C86.3696 209.446 86.0187 208.564 86.0187 207.479V207.288C86.0187 206.532 86.1577 205.864 86.4356 205.285C86.7182 204.706 87.1284 204.26 87.6661 203.945C88.2039 203.626 88.8419 203.467 89.5802 203.467C90.6192 203.467 91.4396 203.79 92.0411 204.438C92.6427 205.08 92.9435 205.978 92.9435 207.131V208.026H88.3634C88.4454 208.441 88.6254 208.767 88.9034 209.004C89.1814 209.241 89.5414 209.359 89.9835 209.359C90.7127 209.359 91.2823 209.104 91.6925 208.594L92.7452 209.838C92.4581 210.234 92.0502 210.551 91.5216 210.788C90.9975 211.021 90.4324 211.137 89.8263 211.137ZM89.5665 205.244C88.892 205.244 88.491 205.691 88.3634 206.584H90.6876V206.406C90.6967 206.037 90.6033 205.752 90.4073 205.552C90.2114 205.347 89.9311 205.244 89.5665 205.244ZM97.9427 205.688L97.1839 205.634C96.4593 205.634 95.9944 205.862 95.7894 206.317V211H93.4857V203.604H95.6458L95.721 204.554C96.1084 203.829 96.6484 203.467 97.3411 203.467C97.5872 203.467 97.8014 203.494 97.9837 203.549L97.9427 205.688ZM101.55 211V201.047H104.756C105.635 201.047 106.426 201.247 107.128 201.648C107.829 202.045 108.376 202.608 108.768 203.337C109.165 204.062 109.365 204.875 109.37 205.777V206.235C109.37 207.147 109.176 207.965 108.789 208.689C108.406 209.41 107.864 209.975 107.162 210.385C106.465 210.79 105.685 210.995 104.824 211H101.55ZM103.949 202.899V209.154H104.783C105.471 209.154 106 208.91 106.369 208.423C106.738 207.931 106.923 207.201 106.923 206.235V205.805C106.923 204.843 106.738 204.118 106.369 203.631C106 203.143 105.462 202.899 104.756 202.899H103.949ZM109.796 207.233C109.796 206.495 109.939 205.839 110.227 205.265C110.514 204.686 110.926 204.242 111.464 203.932C112.002 203.622 112.633 203.467 113.357 203.467C114.465 203.467 115.338 203.811 115.976 204.499C116.614 205.183 116.933 206.115 116.933 207.295V207.377C116.933 208.53 116.611 209.446 115.969 210.125C115.331 210.799 114.465 211.137 113.371 211.137C112.318 211.137 111.473 210.822 110.835 210.193C110.197 209.56 109.853 208.703 109.803 207.623L109.796 207.233ZM112.1 207.377C112.1 208.061 112.207 208.562 112.421 208.881C112.635 209.2 112.952 209.359 113.371 209.359C114.191 209.359 114.611 208.728 114.629 207.466V207.233C114.629 205.907 114.205 205.244 113.357 205.244C112.587 205.244 112.17 205.816 112.106 206.96L112.1 207.377ZM121.118 211.137C119.984 211.137 119.065 210.799 118.363 210.125C117.662 209.446 117.311 208.564 117.311 207.479V207.288C117.311 206.532 117.45 205.864 117.728 205.285C118.01 204.706 118.42 204.26 118.958 203.945C119.496 203.626 120.134 203.467 120.872 203.467C121.911 203.467 122.732 203.79 123.333 204.438C123.935 205.08 124.235 205.978 124.235 207.131V208.026H119.655C119.737 208.441 119.917 208.767 120.195 209.004C120.473 209.241 120.833 209.359 121.276 209.359C122.005 209.359 122.574 209.104 122.985 208.594L124.037 209.838C123.75 210.234 123.342 210.551 122.814 210.788C122.29 211.021 121.724 211.137 121.118 211.137ZM120.859 205.244C120.184 205.244 119.783 205.691 119.655 206.584H121.98V206.406C121.989 206.037 121.895 205.752 121.699 205.552C121.503 205.347 121.223 205.244 120.859 205.244Z" fill="white"/>
<path d="M204.66 206.933C204.66 208.277 204.357 209.314 203.751 210.043C203.149 210.772 202.299 211.137 201.201 211.137C200.093 211.137 199.237 210.77 198.63 210.036C198.024 209.302 197.721 208.268 197.721 206.933V205.114C197.721 203.77 198.022 202.733 198.624 202.004C199.23 201.275 200.084 200.91 201.187 200.91C202.29 200.91 203.144 201.277 203.751 202.011C204.357 202.744 204.66 203.781 204.66 205.121V206.933ZM202.356 204.82C202.356 204.105 202.263 203.572 202.076 203.221C201.889 202.865 201.593 202.688 201.187 202.688C200.791 202.688 200.501 202.852 200.319 203.18C200.141 203.508 200.045 204.005 200.032 204.67V207.213C200.032 207.956 200.125 208.5 200.312 208.847C200.499 209.188 200.795 209.359 201.201 209.359C201.593 209.359 201.882 209.193 202.069 208.86C202.256 208.523 202.351 207.997 202.356 207.281V204.82ZM205.585 206.133L206.193 201.047H212.011V202.838H208.066L207.841 204.813C208.005 204.718 208.219 204.633 208.483 204.561C208.752 204.488 209.014 204.451 209.269 204.451C210.258 204.451 211.017 204.745 211.546 205.333C212.079 205.916 212.345 206.737 212.345 207.794C212.345 208.432 212.202 209.011 211.915 209.53C211.632 210.045 211.234 210.442 210.719 210.72C210.204 210.998 209.595 211.137 208.893 211.137C208.269 211.137 207.683 211.009 207.137 210.754C206.59 210.494 206.161 210.141 205.851 209.694C205.541 209.243 205.389 208.735 205.393 208.17H207.704C207.727 208.535 207.843 208.824 208.053 209.038C208.262 209.252 208.538 209.359 208.88 209.359C209.654 209.359 210.042 208.785 210.042 207.637C210.042 206.575 209.568 206.044 208.62 206.044C208.082 206.044 207.681 206.217 207.417 206.563L205.585 206.133ZM213.975 211.854H212.341L215.738 201.047H217.379L213.975 211.854ZM224.607 211H217.661V209.496L220.861 206.133C221.649 205.235 222.043 204.522 222.043 203.993C222.043 203.565 221.95 203.239 221.763 203.016C221.576 202.792 221.305 202.681 220.949 202.681C220.599 202.681 220.314 202.831 220.095 203.132C219.876 203.428 219.767 203.799 219.767 204.246H217.456C217.456 203.635 217.609 203.073 217.914 202.558C218.22 202.038 218.643 201.632 219.186 201.341C219.728 201.049 220.334 200.903 221.004 200.903C222.08 200.903 222.907 201.152 223.486 201.648C224.069 202.145 224.361 202.858 224.361 203.788C224.361 204.18 224.288 204.563 224.142 204.937C223.996 205.306 223.768 205.695 223.458 206.105C223.153 206.511 222.658 207.056 221.975 207.739L220.69 209.223H224.607V211ZM227.466 205.06H228.553C229.414 205.06 229.845 204.638 229.845 203.795C229.845 203.467 229.743 203.2 229.538 202.995C229.332 202.785 229.043 202.681 228.669 202.681C228.364 202.681 228.097 202.77 227.87 202.947C227.646 203.125 227.535 203.346 227.535 203.61H225.231C225.231 203.086 225.377 202.619 225.668 202.209C225.96 201.799 226.363 201.48 226.878 201.252C227.398 201.02 227.968 200.903 228.587 200.903C229.695 200.903 230.565 201.156 231.199 201.662C231.832 202.168 232.149 202.863 232.149 203.747C232.149 204.175 232.017 204.581 231.752 204.964C231.493 205.342 231.112 205.65 230.611 205.887C231.139 206.078 231.554 206.37 231.855 206.762C232.156 207.149 232.306 207.63 232.306 208.204C232.306 209.093 231.964 209.804 231.281 210.337C230.597 210.87 229.699 211.137 228.587 211.137C227.936 211.137 227.33 211.014 226.769 210.768C226.213 210.517 225.791 210.173 225.504 209.735C225.217 209.293 225.074 208.792 225.074 208.231H227.391C227.391 208.537 227.514 208.801 227.76 209.024C228.006 209.248 228.309 209.359 228.669 209.359C229.075 209.359 229.399 209.248 229.64 209.024C229.882 208.797 230.002 208.507 230.002 208.156C230.002 207.655 229.877 207.299 229.626 207.09C229.376 206.88 229.029 206.775 228.587 206.775H227.466V205.06Z" fill="white"/>
</g>
<defs>
<filter id="filter0_d_284:6191" x="-9" y="0" width="393" height="266" filterUnits="userSpaceOnUse" color-interpolation-filters="sRGB">
<feFlood flood-opacity="0" result="BackgroundImageFix"/>
<feColorMatrix in="SourceAlpha" type="matrix" values="0 0 0 0 0 0 0 0 0 0 0 0 0 0 0 0 0 0 127 0" result="hardAlpha"/>
<feOffset dy="1"/>
<feGaussianBlur stdDeviation="12.5"/>
<feColorMatrix type="matrix" values="0 0 0 0 0 0 0 0 0 0 0 0 0 0 0 0 0 0 0.34 0"/>
<feBlend mode="normal" in2="BackgroundImageFix" result="effect1_dropShadow_284:6191"/>
<feBlend mode="normal" in="SourceGraphic" in2="effect1_dropShadow_284:6191" result="shape"/>
</filter>
<filter id="filter1_d_284:6191" x="-9" y="0" width="394" height="266" filterUnits="userSpaceOnUse" color-interpolation-filters="sRGB">
<feFlood flood-opacity="0" result="BackgroundImageFix"/>
<feColorMatrix in="SourceAlpha" type="matrix" values="0 0 0 0 0 0 0 0 0 0 0 0 0 0 0 0 0 0 127 0" result="hardAlpha"/>
<feOffset dy="1"/>
<feGaussianBlur stdDeviation="12.5"/>
<feColorMatrix type="matrix" values="0 0 0 0 0 0 0 0 0 0 0 0 0 0 0 0 0 0 0.08 0"/>
<feBlend mode="normal" in2="BackgroundImageFix" result="effect1_dropShadow_284:6191"/>
<feBlend mode="normal" in="SourceGraphic" in2="effect1_dropShadow_284:6191" result="shape"/>
</filter>
<linearGradient id="paint0_linear_284:6191" x1="119.5" y1="237.5" x2="311" y2="116.5" gradientUnits="userSpaceOnUse">
<stop stop-color="white"/>
<stop offset="1" stop-color="white" stop-opacity="0"/>
</linearGradient>
<linearGradient id="paint1_linear_284:6191" x1="326.5" y1="-67" x2="326.5" y2="174" gradientUnits="userSpaceOnUse">
<stop stop-color="white"/>
<stop offset="1" stop-color="white" stop-opacity="0"/>
</linearGradient>
</defs>
</svg>
