<svg width="44" height="36" viewBox="0 0 44 36" fill="none" xmlns="http://www.w3.org/2000/svg">
<path fill-rule="evenodd" clip-rule="evenodd" d="M5.45846 4.7627C4.03116 13.5965 3.25967 24.1276 12.0859 35.425H2.81963C-1.94802 26.5964 -0.405013 12.0534 5.45846 4.7627Z" fill="#00534E"/>
<path fill-rule="evenodd" clip-rule="evenodd" d="M6.91602 4.46185C7.47569 4.46185 10.8821 4.13988 14.2069 5.96449C16.4497 7.13383 17.9698 8.89051 18.3933 11.4364C18.7946 13.8482 18.1339 16.026 16.7296 17.9812C14.7596 20.724 12.0285 22.1844 8.6633 22.5252C19.7046 14.4166 11.9343 5.93761 6.91602 4.46185Z" fill="#00534E"/>
<path fill-rule="evenodd" clip-rule="evenodd" d="M6.44043 3.97892C8.31893 2.9727 14.5648 1.87258 18.1678 3.8423C20.3782 5.05071 21.6342 6.98256 21.4775 9.48859C21.3848 10.9709 20.912 12.3449 20.275 13.6688C19.9874 14.2662 19.6513 14.8404 19.2985 15.4974C20.2576 10.204 18.1397 7.27929 15.2061 5.53194C11.0979 3.16052 6.44554 4.00269 6.44043 3.97892Z" fill="#00534E"/>
<path fill-rule="evenodd" clip-rule="evenodd" d="M5.72852 3.78712C6.76391 1.78591 8.27263 0.584073 10.545 0.155191C13.1707 -0.340339 16.9528 0.249083 19.0303 3.4153C19.0303 3.4153 17.6692 2.71815 16.6021 2.44934C10.4776 0.799175 5.84197 3.73821 5.72852 3.78712Z" fill="#00534E"/>
<path fill-rule="evenodd" clip-rule="evenodd" d="M0.983677 9.69998C-1.5623 5.76528 1.67221 2.26428 4.82824 3.87912C3.06673 4.3187 1.09942 6.69108 0.983677 9.69998Z" fill="#00534E"/>
<path d="M19.584 34.2085C19.4818 34.0041 19.3988 33.6402 19.335 33.1166C18.5113 33.9722 17.528 34.4 16.385 34.4C15.3634 34.4 14.5238 34.1127 13.8661 33.538C13.2148 32.957 12.8892 32.2227 12.8892 31.3352C12.8892 30.2561 13.2978 29.4196 14.1151 28.8258C14.9388 28.2256 16.0945 27.9255 17.5823 27.9255H19.3062V27.1114C19.3062 26.492 19.1211 26.0004 18.7507 25.6364C18.3804 25.2661 17.8345 25.0809 17.1129 25.0809C16.4808 25.0809 15.9508 25.2405 15.523 25.5598C15.0952 25.879 14.8813 26.2653 14.8813 26.7187H13.0999C13.0999 26.2015 13.2818 25.7034 13.6458 25.2246C14.0161 24.7393 14.5142 24.3562 15.1399 24.0752C15.7721 23.7943 16.4648 23.6538 17.2183 23.6538C18.4123 23.6538 19.3477 23.9539 20.0246 24.5541C20.7014 25.1479 21.0526 25.9684 21.0781 27.0156V31.7853C21.0781 32.7367 21.1994 33.4933 21.4421 34.0552V34.2085H19.584ZM16.6436 32.858C17.1991 32.858 17.7259 32.7143 18.224 32.427C18.722 32.1397 19.0828 31.7662 19.3062 31.3064V29.1802H17.9175C15.7465 29.1802 14.661 29.8155 14.661 31.0861C14.661 31.6416 14.8462 32.0758 15.2166 32.3887C15.5869 32.7016 16.0626 32.858 16.6436 32.858Z" fill="#00534E"/>
<path d="M25.7808 34.2085H24.0089V19.4971H25.7808V34.2085Z" fill="#00534E"/>
<path d="M30.2919 23.8454L30.3398 24.9947C31.0996 24.1008 32.1245 23.6538 33.4143 23.6538C34.8637 23.6538 35.8502 24.2093 36.3738 25.3203C36.7186 24.8223 37.1655 24.42 37.7147 24.1135C38.2702 23.8071 38.9246 23.6538 39.6781 23.6538C41.9512 23.6538 43.1069 24.8574 43.1452 27.2646V34.2085H41.3734V27.37C41.3734 26.6293 41.2041 26.077 40.8657 25.713C40.5273 25.3427 39.959 25.1575 39.1609 25.1575C38.5032 25.1575 37.9573 25.3555 37.5231 25.7513C37.0889 26.1408 36.8367 26.6676 36.7665 27.3317V34.2085H34.985V27.4179C34.985 25.911 34.2475 25.1575 32.7725 25.1575C31.6104 25.1575 30.8155 25.6524 30.3877 26.6421V34.2085H28.6158V23.8454H30.2919Z" fill="#00534E"/>
</svg>
